<svg width="197" height="34" viewBox="0 0 197 34" fill="none" xmlns="http://www.w3.org/2000/svg">
<path d="M0.00250006 33.2637V0.623672H16.9465V33.2637H10.4665V6.23967H6.5305V33.2637H0.00250006ZM28.4226 33.7437C22.5186 33.7437 19.6386 31.1517 19.6386 25.4397V8.39967C19.6386 2.63967 22.6146 0.143669 28.4226 0.143669C34.2786 0.143669 37.2066 2.63967 37.2066 8.39967V25.4397C37.2066 31.1997 34.2786 33.7437 28.4226 33.7437ZM28.4226 28.2237C29.9586 28.2237 30.6306 27.5037 30.6306 25.9197V7.91967C30.6306 6.33567 29.9586 5.61567 28.4226 5.61567C26.9346 5.61567 26.2626 6.33567 26.2626 7.91967V25.9197C26.2626 27.5037 26.9346 28.2237 28.4226 28.2237ZM49.636 0.623672C54.436 0.623672 56.644 2.83167 56.644 7.87167V14.6877C56.644 19.4397 54.388 21.5517 49.588 21.5517H46.468V33.2637H39.94V0.623672H49.636ZM50.308 14.1597V8.06367C50.308 6.38367 49.828 5.90367 48.388 5.90367H46.468V16.2717H48.388C49.78 16.2717 50.308 15.7437 50.308 14.1597ZM63.337 33.2637V6.28767H58.297V0.623672H74.857V6.28767H69.817V33.2637H63.337ZM94.2681 2.39967C98.8761 2.39967 101.036 4.51167 101.036 9.35967V24.0957C101.036 28.8477 98.8761 30.9597 94.2681 30.9597H91.6761V33.8877H85.3401V30.9597H82.7481C78.1401 30.9597 75.9801 28.8477 75.9801 24.0957V9.35967C75.9801 4.51167 78.1401 2.39967 82.7481 2.39967H85.3401V-0.000329018H91.6761V2.39967H94.2681ZM85.3401 25.6317V7.67967H83.9961C82.7001 7.67967 82.2201 8.15967 82.2201 9.50367V23.8077C82.2201 25.1517 82.7001 25.6317 83.9961 25.6317H85.3401ZM94.7961 23.8077V9.50367C94.7961 8.15967 94.3161 7.67967 93.0201 7.67967H91.6761V25.6317H93.0201C94.3161 25.6317 94.7961 25.1517 94.7961 23.8077ZM103.643 33.2637V0.623672H117.227V6.33567H110.171V13.6317H117.131V19.3437H110.171V27.5517H117.227V33.2637H103.643ZM137.145 0.623672V33.2637H130.665V6.09567H127.209V25.2957C127.209 31.4877 125.337 33.4557 120.825 33.4557H118.617V27.7917H119.241C120.681 27.7917 121.161 27.1197 121.161 24.2397V0.623672H137.145ZM140.018 33.2637V0.623672H146.306L146.066 17.7117H146.69L151.634 0.623672H157.346V33.2637H151.058L151.346 16.7517H150.77L145.874 33.2637H140.018ZM177.309 21.5997L177.501 33.2637H171.069L170.877 21.1677C170.877 19.7757 170.397 19.2957 169.149 19.2957H166.749V33.2637H160.221V0.623672H166.749V13.6317H168.813C170.013 13.6317 170.541 13.1517 170.589 11.7597L170.733 0.623672H177.165L177.021 10.0317C176.925 13.7757 175.869 15.2157 172.845 15.4557V16.2717C176.061 16.6077 177.213 18.0477 177.309 21.5997ZM188.358 33.7437C182.55 33.7437 179.67 31.2957 179.67 25.5357V8.30367C179.67 2.59167 182.55 0.143669 188.358 0.143669C194.166 0.143669 196.95 2.54367 196.95 8.25567V14.4477H190.518V7.77567C190.518 6.33567 189.846 5.61567 188.358 5.61567C186.87 5.61567 186.246 6.33567 186.246 7.87167V26.0157C186.246 27.5037 186.87 28.2237 188.406 28.2237C189.846 28.2237 190.47 27.5517 190.518 26.0157V18.3837H196.95V25.4877C196.95 31.2957 194.166 33.7437 188.358 33.7437Z" fill="black"/>
</svg>
