<svg width="330" height="63" viewBox="0 0 330 63" fill="none" xmlns="http://www.w3.org/2000/svg">
<path d="M53.4962 39.6066L60.1215 39.6066L60.1215 51.1685L55.7046 55.5205H40.3754L36.0234 51.1685L36.0234 11.1566L40.3754 6.80469L55.7046 6.80469L60.1215 11.1566V22.7185H53.4962V14.2095L51.2228 11.9361L44.7923 11.9361L42.5838 14.2095L42.5838 48.1157L44.7923 50.3891H51.2877L53.4962 48.1157L53.4962 39.6066Z" fill="white"/>
<path d="M139.565 6.80469L143.982 11.1566V26.4209L140.085 30.2532L143.982 34.0855V51.1685L139.565 55.5205H120.274L120.274 6.80469L139.565 6.80469ZM135.213 50.3891L137.422 48.1157V35.1248L135.148 32.8514H126.834V50.3891H135.213ZM135.148 27.72L137.422 25.4466V14.2095L135.148 11.9361L126.834 11.9361V27.72H135.148Z" fill="white"/>
<path d="M170.071 6.80469V11.9361L157.015 11.9361V28.5644L168.057 28.5644V33.6958L157.015 33.6958V50.3891H170.071V55.5205H150.455V6.80469L170.071 6.80469Z" fill="white"/>
<path d="M199.073 33.1762L194.656 37.5931L200.307 55.5205H193.747L188.161 37.5931H182.185V55.5205H175.625V6.80469L194.656 6.80469L199.073 11.1566V33.1762ZM190.304 32.3967L192.513 30.1883V14.2095L190.239 11.9361L182.185 11.9361V32.3967H190.304Z" fill="white"/>
<path d="M213.381 26.6158L226.112 26.6158L230.529 30.9677V51.1685L226.112 55.5205H206.82V6.80469L229.619 6.80469V11.9361L213.381 11.9361V26.6158ZM221.76 50.3891L223.968 48.1157V34.0206L221.695 31.7472H213.381V50.3891H221.76Z" fill="white"/>
<path d="M247.784 6.80469L254.344 6.80469L266.75 55.5205H260.255L257.527 44.9329H244.601L241.938 55.5205H235.377L247.784 6.80469ZM249.927 24.1475L245.9 39.7365H256.228L252.201 24.1475L251.096 18.1717L249.927 24.1475Z" fill="white"/>
<path d="M270.671 6.80469L289.508 6.80469L293.86 11.1566V35.6444L289.508 39.9964L277.231 39.9964V55.5205H270.671V6.80469ZM285.091 34.865L287.364 32.6565V14.2095L285.091 11.9361H277.231V34.865H285.091Z" fill="white"/>
<path d="M104.455 6.80469L65.4825 6.80469V55.5205H80.0973V50.6489H89.8404V31.1626H84.9688V26.291H80.0973V21.4194H75.2257V16.5478H84.9688V21.4194L89.8404 21.4194V31.1626L99.5836 31.1626V26.291H104.455V16.5479L99.5836 16.5478V11.6763L104.455 11.6763V6.80469Z" fill="#A6FF14"/>
<path d="M99.5836 31.1626V36.0342H94.712V50.6489L104.455 50.6489L104.455 55.5205H114.198L114.198 21.4194L109.327 21.4194V26.291H104.455V31.1626H99.5836Z" fill="#A6FF14"/>
<path d="M104.455 16.5479L114.198 16.5479V6.80469L109.327 6.80469V11.6763H104.455V16.5479Z" fill="#A6FF14"/>
</svg>
