<svg width="384" height="384" viewBox="0 0 384 384" fill="none" xmlns="http://www.w3.org/2000/svg">
<path d="M310.04 384H73.9601C33.1123 384 0 350.888 0 310.04V73.96C0 33.1122 33.1123 0 73.9601 0H310.04C350.888 0 384 33.1122 384 73.96V310.04C384 350.888 350.888 384 310.04 384Z" fill="white"/>
<path d="M282.373 312.102C266.614 312.102 255.758 303.171 255.758 275.503V269.549H273.268V275.503C273.268 290.213 277.121 294.239 282.373 294.239C287.625 294.239 291.305 290.213 291.305 283.382C291.305 274.8 290.079 270.075 277.821 261.143C263.461 250.813 256.807 239.78 256.807 225.596C256.807 207.56 266.261 196.703 282.373 196.703C293.579 196.703 308.465 200.206 308.465 229.622V236.453H290.955V229.622C290.955 218.067 287.278 214.213 282.373 214.213C277.121 214.213 274.317 218.067 274.317 224.894C274.317 231.897 275.892 237.675 288.151 247.133C303.387 258.865 308.815 268.147 308.815 283.379C308.815 298.612 301.808 312.102 282.373 312.102ZM222.659 312.102C206.9 312.102 196.043 304.573 196.043 275.503V269.549H213.554V275.503C213.554 290.213 217.407 294.239 222.659 294.239C227.91 294.239 231.59 290.213 231.59 283.382C231.59 274.8 230.365 270.075 218.106 261.143C203.746 250.813 197.092 239.78 197.092 225.596C197.092 207.56 206.547 196.703 222.659 196.703C233.865 196.703 248.751 200.206 248.751 229.622V236.453H231.241V229.622C231.241 218.067 227.564 214.213 222.659 214.213C217.407 214.213 214.603 218.067 214.603 224.894C214.603 231.897 216.178 237.675 228.437 247.133C243.672 258.865 249.101 268.147 249.101 283.379C249.101 298.612 242.097 312.102 222.659 312.102ZM282.373 187.948C266.614 187.948 255.758 179.016 255.758 151.349V145.397H273.268V151.352C273.268 166.061 277.121 170.088 282.373 170.088C287.625 170.088 291.305 166.061 291.305 159.231C291.305 150.649 290.079 145.924 277.821 136.992C263.461 126.661 256.807 115.628 256.807 101.445C256.807 83.4083 266.261 72.5518 282.373 72.5518C293.579 72.5518 308.465 76.0551 308.465 105.471V112.301H290.955V105.471C290.955 93.9152 287.278 90.0622 282.373 90.0622C277.121 90.0622 274.317 93.9152 274.317 100.742C274.317 107.746 275.892 113.524 288.151 122.982C303.387 134.714 308.815 143.995 308.815 159.228C308.812 174.467 301.808 187.948 282.373 187.948ZM222.659 187.948C206.9 187.948 196.043 180.418 196.043 151.349V145.397H213.554V151.352C213.554 166.061 217.407 170.088 222.659 170.088C227.91 170.088 231.59 166.061 231.59 159.231C231.59 150.649 230.365 145.924 218.106 136.992C203.746 126.661 197.092 115.628 197.092 101.445C197.092 83.4083 206.547 72.5518 222.659 72.5518C233.865 72.5518 248.751 76.0551 248.751 105.471V112.301H231.241V105.471C231.241 93.9152 227.564 90.0622 222.659 90.0622C217.407 90.0622 214.603 93.9152 214.603 100.742C214.603 107.746 216.178 113.524 228.437 122.982C243.672 134.714 249.101 143.995 249.101 159.228C249.101 174.467 242.097 187.948 222.659 187.948ZM94.6543 269.552H98.1577C105.864 269.552 109.714 265.699 109.714 247.839V237.682C109.714 219.821 105.861 215.968 98.1577 215.968H94.6543V269.552ZM94.6543 310.351H77.1439V198.455H98.1577C120.923 198.455 127.227 211.413 127.227 235.93V249.587C127.227 274.101 120.923 287.062 98.1577 287.062H94.6543V310.351ZM98.1544 127.887H94.651V91.8139H98.1544C106.034 91.8139 109.71 94.4414 109.71 106.697V113.001C109.714 125.259 106.037 127.887 98.1544 127.887ZM130.551 186.199L117.067 139.619C123.547 134.191 127.224 125.259 127.224 114.23V105.474C127.224 84.9868 118.119 74.3034 98.1544 74.3034H77.1406V186.199H94.651V145.397H96.9289C97.8047 145.397 99.0303 145.397 100.955 145.221L111.462 186.196H130.551V186.199ZM150.512 269.552L159.444 215.968H160.846L169.774 269.552H150.512ZM176.432 310.351H193.942L174.503 198.455H145.787L126.175 310.351H143.685L147.712 287.062H172.578L176.432 310.351ZM161.895 187.948C140.355 187.948 136.329 171.663 136.329 151.875V74.3034H154.542V153.453C154.542 167.287 156.993 170.437 161.895 170.437C166.797 170.437 169.248 167.287 169.248 153.453V74.3034H187.461V151.878C187.461 171.663 183.435 187.948 161.895 187.948Z" fill="#FF3000"/>
</svg>
