<svg width="240" height="95" viewBox="0 0 240 95" fill="none" xmlns="http://www.w3.org/2000/svg">
<path d="M32.7635 77.1145C40.954 66.4662 48.0334 63.9499 50.6082 63.9499C51.3684 63.9499 52.1286 64.2423 52.0701 65.2364C51.8947 67.9282 44.2305 75.183 43.9966 79.1612C43.8797 81.0343 44.7568 82.2623 47.0977 82.2623C53.1829 82.2623 60.3793 74.4812 62.4862 71.1462L61.5505 71.3217C58.8003 75.1245 52.7736 85.7728 52.7736 90.7469C52.7736 92.9708 53.7093 94.7836 56.1086 94.7836C64.416 94.7836 73.4785 78.5249 76.1702 73.377L72.4259 72.4998C69.2078 79.9301 60.6734 90.2791 58.0401 90.2791C54.8221 90.2791 70.2106 63.3651 70.2106 63.3651L66.2323 61.7862C59.9132 71.3234 52.4244 77.7595 49.7327 77.7595C47.1579 77.7595 56.929 68.6901 56.929 64.0101C56.929 61.1429 54.8805 59.9149 51.8397 59.9149C43.9416 59.9149 34.8722 65.1229 28.904 72.9625L32.7635 77.1145ZM186.876 11.467L190.503 12.7535L184.008 27.4454C194.364 12.5265 203.141 6.14198 210.104 6.14198C214.14 6.14198 216.774 8.42437 216.774 12.695C216.774 21.9983 208.876 33.1144 201.151 33.1144C198.518 33.1144 196.588 31.7109 196.588 28.142C196.588 21.7644 202.089 14.3926 206.359 11.9348L209.402 14.2757C202.615 18.8972 198.754 29.2531 201.796 29.2531C206.593 29.2531 212.561 18.9557 212.561 12.8705C212.561 10.705 211.509 9.88634 209.694 9.94482C198.167 10.2974 184.499 30.5362 181.2 36.5096L177.046 35.1646C178.274 31.8864 186.876 11.467 186.876 11.467ZM236.314 19.2498L238.947 22.7603C238.947 22.7603 231.81 30.0151 223.5 30.0151C218.528 30.0151 217.006 27.0309 217.006 23.2866C217.006 16.2657 224.319 3.56892 234.85 3.56892C238.185 3.56892 240 5.38348 240 8.01502C240 13.7494 232.804 19.482 221.746 19.6574L222.799 15.6207C227.888 16.147 235.554 12.4611 235.554 8.71677C235.554 8.01502 235.086 7.66415 234.384 7.66415C229.176 7.66415 221.395 17.4353 221.395 23.345C221.395 24.7485 221.746 25.9198 223.736 25.9198C229.937 25.9198 236.314 19.2498 236.314 19.2498ZM186.7 25.335L190.788 25.1974C191.373 27.7722 193.604 34.3459 199.105 37.8564L194.191 39.3768C189.566 35.2214 187.694 29.8981 186.7 25.335ZM0 72.3158L2.34087 78.9858C15.6224 78.401 35.3401 57.5723 42.1855 18.3124L38.8505 28.4929C37.0944 36.3909 35.3985 49.9064 34.5214 56.6349L38.9675 58.0969C44.6433 51.1345 51.3718 39.081 55.9934 27.7309L53.7694 28.1403C49.8497 36.3892 43.5305 55.2297 51.3701 55.2297C58.1571 55.2297 64.7686 41.3049 64.7686 40.954L64.2423 35.2197C61.1412 40.6616 55.5823 50.0801 53.1262 50.0801C50.5514 50.0801 53.8864 37.2664 61.6692 18.4277L57.2816 17.0242C51.8379 31.7694 45.8697 42.1253 36.9775 55.4653L39.0844 55.6992C41.2498 42.5346 42.5949 29.3701 46.1638 16.2055L41.7177 14.802C41.716 14.802 29.487 69.0977 0 72.3158ZM197.933 61.1997L199.395 57.6892C205.363 57.1629 211.096 52.4812 211.096 49.3818C211.096 48.3292 210.687 47.8614 209.634 47.8614C205.831 47.8614 198.986 55.584 198.986 61.9616C198.986 65.0042 200.038 66.7586 203.49 66.7586C212.852 66.7586 224.453 57.7047 231.65 49.0447L235.387 53.8933C228.542 62.0253 215.595 70.5614 203.951 70.5614C196.881 70.5614 194.713 66.0569 194.713 62.0786C194.713 54.239 202.611 44.0585 210.336 44.0585C213.612 44.0585 215.544 45.8731 215.544 48.797C215.544 54.7051 207.295 61.1997 197.933 61.1997ZM179.327 49.0292L182.954 50.2573C180.672 53.5338 173.241 65.9382 175.524 65.9382C177.923 65.9382 184.242 57.6308 188.981 49.4971L193.134 50.9005C189.975 55.8145 185.178 65.9949 187.342 65.9949C189.858 65.9949 194.947 59.4419 194.947 59.4419L196.175 61.8412C197.111 61.8412 190.792 70.3241 185.176 70.3241C180.438 70.3241 182.484 62.2506 185.527 57.3934H186.989C186.989 56.8086 180.67 70.3241 173.298 70.3241C166.515 70.3275 174.53 54.9975 179.327 49.0292ZM169.322 47.0994L172.949 48.386C172.949 48.3275 165.051 61.5506 160.311 80.6232L156.157 79.1612C156.627 76.4127 161.424 59.7962 169.322 47.0994ZM155.983 49.7327L160.137 51.0777C160.137 51.0777 149.43 69.6241 151.068 69.6241C153.993 69.6241 162.184 59.9699 166.104 52.8321L166.922 56.401C166.922 56.401 156.8 74.1286 148.961 74.1286C140.653 74.1304 155.983 49.7327 155.983 49.7327ZM144.865 51.3116L149.019 52.7736C149.019 52.7736 137.845 70.9691 139.95 70.9691C143.636 70.9691 154.167 52.7736 154.167 52.7736L155.982 55.1729C155.982 55.1729 144.807 75.8262 137.2 75.8262C129.596 75.8262 142.292 55.4653 144.865 51.3116ZM110.814 78.6934C113.272 71.614 120.058 58.274 120.058 58.274C120.058 58.274 119.181 55.5238 119.181 54.4712C119.181 53.8864 119.415 53.8864 119.942 53.7694C131.878 51.5455 141.823 47.4503 142.057 47.4503C142.992 47.4503 142.876 50.7853 142.876 50.7853C142.876 51.2531 136.849 53.477 136.849 53.477C136.732 53.6525 137.667 52.3075 137.551 52.4829C133.28 59.0944 126.084 73.4286 128.013 73.4286C130.647 73.4286 137.784 64.2423 137.784 64.2423L136.498 69.6258C133.28 74.5982 128.19 78.1688 125.499 78.1688C124.037 78.1688 122.749 77.2332 123.041 74.3075C123.743 67.4621 131.524 55.1162 131.524 55.1162L125.205 56.8121C125.029 57.046 126.14 55.467 125.906 55.7594C122.045 61.8447 115.843 77.5823 114.79 79.9817L110.814 78.6934ZM95.6024 73.7795L96.3041 70.3275C101.629 70.3275 108.241 65.8814 108.241 61.1997C108.241 60.1471 107.597 59.8547 106.779 59.8547C102.508 59.8547 96.8906 70.7369 97.0076 74.8906C97.0076 76.8221 97.6508 77.5238 98.8221 77.5238C104.089 77.5238 113.098 70.7369 118.247 62.0769L120.296 64.0084C117.78 68.8053 107.541 81.6775 97.4186 81.6775C94.1421 81.6775 92.6801 78.9273 92.7386 75.2414C92.7971 67.5773 99.4086 55.6992 107.482 55.6992C111.11 55.6992 112.807 57.7477 112.749 60.6717C112.687 66.1136 105.023 74.1888 95.6024 73.7795ZM88.6984 63.4855C87.1487 66.8274 83.5368 78.1791 82.737 81.4901L86.7153 82.9056C88.5883 74.4761 92.3843 64.7789 92.3258 64.717L88.6984 63.4855ZM91.5656 63.0555L93.4386 59.7945C93.4386 59.7945 91.7428 57.4553 87.7628 57.4553C79.2799 57.4553 70.9123 71.1153 70.9123 79.9765C70.9123 83.4835 72.4912 84.715 74.3058 84.715C78.7519 84.715 83.726 77.2693 87.4704 70.5012L87.9967 64.9629C84.7202 71.117 78.2841 79.8544 76.1203 79.8544C73.838 79.8544 80.0401 61.8859 87.9382 61.7638C89.0493 61.7621 90.3943 62.1938 91.5656 63.0555ZM153.935 42.8288C182.135 48.6801 203.14 39.0844 211.332 35.0477L212.969 39.5522C195.651 47.3333 180.966 48.3877 172.13 48.3877C160.312 48.3877 152.471 45.579 152.471 45.2866L153.935 42.8288ZM170.434 25.1579C170.434 25.1579 176.227 17.6692 172.658 17.6692C168.856 17.6692 163.472 26.914 163.414 32.2372C163.414 33.6992 163.94 34.6951 165.521 34.6951C172.249 34.6951 182.13 21.4926 185.524 14.7057L182.435 23.4844C178.866 30.3883 170.223 38.7903 164.349 38.7903C160.78 38.7903 159.024 36.6249 159.024 33.2314C159.024 24.924 166.396 13.6892 173.066 13.6892C176.401 13.6892 178.038 15.6792 178.038 18.0768C178.038 20.7101 176.518 23.9866 174.294 26.5012L170.434 25.1579ZM135.211 20.0685L136.264 23.462C136.264 23.462 131.292 24.0468 127.898 31.7109C125.206 37.9131 125.726 40.5464 127.131 40.5464C129.706 40.5464 133.399 34.929 135.153 24.6316C146.62 23.9883 165.168 10.7068 165.168 4.97241C165.168 4.21218 164.583 3.86131 163.94 3.86131C157.738 3.86131 144.807 22.6433 144.807 35.5138C144.807 37.1512 145.567 37.7962 146.386 37.7962C148.727 37.7962 151.183 32.9407 149.721 24.924C153.758 24.2222 160.896 22.2322 165.694 18.0785L165.811 21.9398C162.944 24.69 156.917 26.7953 152.705 27.5572C152.179 27.6742 154.52 26.2707 154.05 26.3292C155.278 29.8396 154.401 41.599 145.684 41.599C142.875 41.599 140.595 39.7844 140.595 35.1629C140.712 22.7001 154.11 0 164.759 0C167.509 0 169.439 1.40349 169.439 4.09523C169.439 13.6324 148.668 25.7427 138.429 27.4987C138.429 27.4987 136.199 44.6416 126.135 44.6416C123.677 44.6416 121.754 42.6516 121.813 38.9073C121.932 32.3559 127.898 20.4194 135.211 20.0685ZM112.628 49.9666C107.245 49.9666 106.302 44.1153 107.413 36.2757L111.457 36.3342C110.755 39.8446 110.755 46.0468 113.388 46.0468C116.139 46.0468 120.526 39.2598 123.101 32.9407L124.044 37.1529C122.348 41.8914 118.068 49.9666 112.628 49.9666ZM104.436 23.6959L107.953 24.9824L102.563 40.0768L102.401 39.5299C102.401 39.5299 111.691 21.2381 119.121 21.2381C121.17 21.2381 122.398 22.4661 122.398 24.5731C122.398 28.8438 118.712 33.8764 118.712 33.8764L114.85 32.5314C114.85 32.5314 119.063 25.5689 117.425 25.5689C115.494 25.5689 108.891 31.7711 101.108 47.9199L96.9474 46.4579C99.1713 39.4938 104.436 23.6959 104.436 23.6959ZM89.2832 35.6324C89.2832 35.6324 93.4954 28.4946 91.2732 28.4946C88.5815 28.4946 82.7302 37.7394 82.7302 44.1755C82.7302 45.6959 83.4319 46.5164 84.6617 46.5164C91.1047 46.5164 101.454 29.7829 104.438 23.6976L104.022 28.9332C100.048 37.416 91.6826 50.6683 83.7243 50.6683C80.6817 50.6683 78.4578 48.6784 78.4578 44.3492C78.4578 37.8546 84.4845 24.2807 91.9148 24.2807C94.6065 24.2807 96.3609 25.8596 96.3609 29.0192C96.3609 31.7694 94.0785 35.7477 93.2013 36.9757L89.2832 35.6324ZM74.3643 26.5631C63.3651 29.0209 54.3542 52.9507 65.1195 52.9507C73.3684 52.9507 77.6408 40.8388 76.9373 32.7653L72.7836 33.6425C72.0819 45.2264 68.1621 48.7368 65.8797 48.7368C65.0025 48.7368 64.4177 47.9181 64.4177 46.4544C64.3593 43.1194 67.8697 33.0559 76.5882 29.7209L74.3643 26.5631Z" fill="white"/>
</svg>
