<svg width="518" height="86" viewBox="0 0 518 86" fill="none" xmlns="http://www.w3.org/2000/svg">
<g clip-path="url(#clip0_395_4347)">
<path d="M102.921 67.8946H101.132C82.3457 67.8946 80.6941 58.9486 80.6941 55.7143V55.3702H95.0765C95.283 56.6777 95.9023 59.4303 102.715 59.4303H102.853C108.84 59.4303 110.216 57.6411 110.216 55.7831C110.216 53.8563 109.321 52.48 102.921 52.1359L97.6915 51.723C85.3735 50.966 80.9005 46.6306 80.9005 40.2996V39.8867C80.9005 33.3493 84.4789 27.9129 100.651 27.9129H102.509C121.02 27.9129 123.222 34.6568 123.222 39.6115V39.8179H109.184C108.771 38.4416 108.151 36.1019 101.889 36.1019H101.683C95.9023 36.1019 94.3884 37.3406 94.3884 39.2674C94.3884 41.4007 95.7647 42.6394 101.27 42.8458L106.5 43.0522C120.263 43.6028 124.048 47.9381 124.048 54.338V54.8197C124.048 61.2195 121.295 67.8946 102.921 67.8946ZM155.597 67H139.976L125.043 28.8075H139.288L148.441 55.3014L156.354 28.8075H171.494L180.027 55.3014L188.491 28.8075H201.222L187.734 67H171.975L163.58 42.2265L155.597 67ZM218.513 14.9067V24.5409H204.819V14.9067H218.513ZM218.376 28.8075V67H204.957V28.8075H218.376ZM261.747 38.4416H244.956V67H231.606V38.4416H223.142V28.8075H231.606V25.7108C231.606 19.1045 233.946 14.9067 243.511 14.9067H253.283V23.2334H247.984C245.851 23.2334 244.956 24.128 244.956 26.3989V28.8075H261.747V17.1777H275.097V28.8075H283.837V38.4416H275.097V52.48C275.097 55.439 275.854 56.7465 279.089 56.7465H283.837V67H271.657C265.394 67 261.747 63.5592 261.747 56.6777V38.4416ZM303.075 14.9067V67H289.656V14.9067H303.075ZM334.748 68.0322H332.614C312.039 68.0322 308.873 55.5078 308.873 48.5575V47.5941C308.873 40.7125 312.039 27.7752 332.546 27.7752H334.816C356.012 27.7752 358.489 40.7813 358.489 47.5252V48.6263C358.489 55.5078 356.012 68.0322 334.748 68.0322ZM333.303 57.9852H334.06C342.524 57.9852 344.657 51.9294 344.657 47.7317C344.657 43.3963 342.524 37.6158 334.06 37.6158H333.303C324.494 37.6158 322.705 43.3963 322.705 47.7317C322.705 51.9294 324.494 57.9852 333.303 57.9852ZM387.397 37.9599H386.64C378.244 37.9599 376.249 42.8458 376.249 46.6995V46.9059C376.249 50.6908 378.52 55.6455 386.64 55.6455H387.466C395.379 55.6455 397.857 50.8284 397.857 46.9747V46.6995C397.857 42.6394 395.104 37.9599 387.397 37.9599ZM388.773 81.176H386.433C366.614 81.176 364.55 73.0558 364.55 68.6516V68.3763H378.795C379.345 69.4774 380.171 71.3354 387.19 71.3354H387.947C395.379 71.3354 397.788 67.8946 397.788 63.284V60.4625C396.343 61.9077 392.489 65.6925 383.13 65.6925H382.167C367.096 65.6925 362.417 55.5078 362.417 47.3188V46.1489C362.417 37.547 367.578 28.0505 381.96 28.0505H382.717C391.87 28.0505 396.067 31.2848 397.719 32.7299V28.8075H411.069V62.7334C411.069 72.9181 405.702 81.176 388.773 81.176ZM432.445 14.9067V24.5409H418.751V14.9067H432.445ZM432.308 28.8075V67H418.889V28.8075H432.308ZM460.333 67.8946H458.544C439.758 67.8946 438.106 58.9486 438.106 55.7143V55.3702H452.488C452.695 56.6777 453.314 59.4303 460.127 59.4303H460.265C466.251 59.4303 467.628 57.6411 467.628 55.7831C467.628 53.8563 466.733 52.48 460.333 52.1359L455.103 51.723C442.785 50.966 438.312 46.6306 438.312 40.2996V39.8867C438.312 33.3493 441.891 27.9129 458.062 27.9129H459.92C478.432 27.9129 480.634 34.6568 480.634 39.6115V39.8179H466.596C466.183 38.4416 465.563 36.1019 459.301 36.1019H459.095C453.314 36.1019 451.8 37.3406 451.8 39.2674C451.8 41.4007 453.177 42.6394 458.682 42.8458L463.912 43.0522C477.675 43.6028 481.46 47.9381 481.46 54.338V54.8197C481.46 61.2195 478.707 67.8946 460.333 67.8946ZM513.973 56.7465V67H501.792C495.53 67 491.883 63.5592 491.883 56.6777V38.4416H483.556V28.8075H491.883V17.1777H505.233V28.8075H513.973V38.4416H505.233V52.48C505.233 55.439 505.99 56.7465 509.224 56.7465H513.973Z" fill="white"/>
<path d="M60.9219 35.8327L50.9813 35.8327L50.9813 23.291L60.9219 23.291L60.9219 35.8327ZM46.5791 35.7066L0.00520652 35.7066L0.00520706 23.4171L46.5791 23.4171L46.5791 35.7066Z" fill="#FF0000"/>
<path d="M60.9219 51.9577L50.9813 51.9577L50.9813 39.416L60.9219 39.416L60.9219 51.9577ZM46.5791 51.8316L7.17187 51.8316L7.17187 39.5421L46.5791 39.5421L46.5791 51.8316Z" fill="#FF4D00"/>
<path d="M60.9219 68.0827L50.9813 68.0827L50.9813 55.541L60.9219 55.541L60.9219 68.0827ZM46.5791 67.9566L14.3385 67.9566L14.3385 55.6671L46.5791 55.6671L46.5791 67.9566Z" fill="#FF8500"/>
</g>
<defs>
<clipPath id="clip0_395_4347">
<rect width="517.792" height="86" fill="white"/>
</clipPath>
</defs>
</svg>
